<?xml version="1.0"?>
<svg xmlns="http://www.w3.org/2000/svg" viewBox="0 0 512 512" width="512" height="512"><g id="User_Lock_Privacy" data-name="User Lock Privacy"><g id="Outline"><path d="M72,440a8,8,0,0,0-8,8v56a8,8,0,0,0,16,0V448A8,8,0,0,0,72,440Z"/><path d="M168.07,40.56a8,8,0,1,0-6.32-3.09A7.91,7.91,0,0,0,168.07,40.56Z"/><path d="M327.35,268.96a109.8,109.8,0,0,0,16.17-29.44,36.628,36.628,0,0,0,29.669-27.31l4.561-18.24a27.313,27.313,0,0,0-7.04-25.81,27.277,27.277,0,0,0-10.021-6.48l2.25-11a127.94,127.94,0,0,0,2.036-13.764c0-.015,0-.031,0-.046.361-3.88.551-7.764.551-11.63a123.75,123.75,0,0,0-9.671-48.08A125.267,125.267,0,0,0,240,0h-.02a124.933,124.933,0,0,0-47.32,9.2,8,8,0,0,0,6.03,14.82A109.669,109.669,0,0,1,348.743,112.1c-15.312-12.47-34.305-15.808-35.429-16l-3.12-.519-30.662,20.445a71.284,71.284,0,0,1-79.064,0L169.806,95.589l-3.12.519c-1.123.188-20.116,3.526-35.428,16a108.527,108.527,0,0,1,20.9-51.984,8.007,8.007,0,0,0-1.64-11.19,7.907,7.907,0,0,0-4.77-1.59,8.051,8.051,0,0,0-6.42,3.22,125.625,125.625,0,0,0-18.31,34.87,123.938,123.938,0,0,0-6.56,39.81,127.338,127.338,0,0,0,2.6,25.44l2.25,11a27.074,27.074,0,0,0-10.02,6.48,27.463,27.463,0,0,0-5.77,8.67,27.106,27.106,0,0,0-2.1,10.47,27.386,27.386,0,0,0,.83,6.67l4.56,18.24a36.629,36.629,0,0,0,29.67,27.31A110.091,110.091,0,0,0,176,291.488v31.158a8,8,0,0,1-6.569,7.872L65.689,349.38A79.962,79.962,0,0,0,0,428.09V504a8,8,0,0,0,16,0V428.09a63.97,63.97,0,0,1,52.551-62.968l92.417-16.8A79.976,79.976,0,0,0,240,416a8,8,0,0,0,0-16,64,64,0,0,1-63.357-54.97A23.985,23.985,0,0,0,192,322.646V300.982A110.149,110.149,0,0,0,327.35,268.96ZM240.02,296h-.04a93.652,93.652,0,0,1-89.94-66.36l-1.73-5.61-5.92-.03a20.637,20.637,0,0,1-20.06-15.67l-4.56-18.24a11.242,11.242,0,0,1,2.93-10.72,11.218,11.218,0,0,1,8.07-3.37h9.81l-5.85-28.54c-.692-3.384-1.218-6.8-1.593-10.22,7.651-16.339,27.711-22.8,35.256-24.7l25.2,16.8a87.286,87.286,0,0,0,96.816,0l25.2-16.8c7.56,1.9,27.606,8.364,35.257,24.694-.375,3.422-.9,6.84-1.593,10.232l-5.84,28.469-.01.061h9.809a11.237,11.237,0,0,1,8.071,3.37,11.253,11.253,0,0,1,2.929,10.73l-4.559,18.23A20.637,20.637,0,0,1,337.609,224H331.74l-1.78,5.64A93.653,93.653,0,0,1,240.02,296Z"/><path d="M496,369.376V336a87.945,87.945,0,0,0-88-88,88.593,88.593,0,0,0-21,2.52,8,8,0,0,0,1.9,15.77,7.74,7.74,0,0,0,1.911-.23A72.03,72.03,0,0,1,480,336v32H464V336a56,56,0,0,0-112,0v32H336V336a72.041,72.041,0,0,1,9.859-36.41,8,8,0,1,0-13.79-8.1A87.941,87.941,0,0,0,320,336v33.376A24.039,24.039,0,0,0,304,392v96a24.028,24.028,0,0,0,24,24H488a24.028,24.028,0,0,0,24-24V392A24.039,24.039,0,0,0,496,369.376ZM368,336a40,40,0,0,1,80,0v32H368ZM496,488a8.009,8.009,0,0,1-8,8H328a8.009,8.009,0,0,1-8-8V392a8.009,8.009,0,0,1,8-8H488a8.009,8.009,0,0,1,8,8Z"/><path d="M360.16,263.87a8,8,0,1,0,6.42,3.21A7.936,7.936,0,0,0,360.16,263.87Z"/><path d="M408,400a28,28,0,0,0-8,54.829V472a8,8,0,0,0,16,0V454.829A28,28,0,0,0,408,400Zm0,40a12,12,0,1,1,12-12A12.013,12.013,0,0,1,408,440Z"/></g></g></svg>
